<svg width="1444" height="335" viewBox="0 0 1444 335" fill="none" xmlns="http://www.w3.org/2000/svg">
<path d="M0.34375 62.3125C0.34375 56.3125 2.59375 51.1562 7.09375 46.8438C11.7812 42.3438 17.4062 38.7813 23.9688 36.1562C30.5312 33.3438 37.375 31.2812 44.5 29.9688C51.625 28.4687 57.7188 27.7188 62.7812 27.7188C67.8438 27.7188 72.9062 28.5625 77.9688 30.25C83.2188 31.9375 87.8125 34.375 91.75 37.5625C95.6875 40.5625 98.6875 44.5 100.75 49.375C103 54.0625 103.75 59.5 103 65.6875C102.062 75.25 98.875 83.6875 93.4375 91C88.1875 98.3125 81.625 104.5 73.75 109.562C66.0625 114.438 57.625 118.188 48.4375 120.812C39.4375 123.25 30.7188 124.469 22.2812 124.469C22.2812 131.406 22.5625 138.344 23.125 145.281C23.6875 152.031 24.25 158.875 24.8125 165.812C25.5625 172.75 26.2188 179.688 26.7812 186.625C27.3438 193.375 27.625 200.219 27.625 207.156C27.625 209.219 27.4375 211.188 27.0625 213.062C26.6875 214.75 25 216.062 22 217L16.375 211.656C16.375 211.469 16.0938 208.844 15.5312 203.781C14.9688 198.719 14.125 192.156 13 184.094C12.0625 176.031 10.9375 166.938 9.625 156.812C8.5 146.5 7.375 136.188 6.25 125.875C5.125 115.562 4 105.625 2.875 96.0625C1.9375 86.5 1.09375 78.25 0.34375 71.3125C0.34375 71.125 0.34375 70.6562 0.34375 69.9062C0.34375 69.1562 0.34375 68.3125 0.34375 67.375C0.34375 66.4375 0.34375 65.5 0.34375 64.5625C0.34375 63.625 0.34375 62.875 0.34375 62.3125ZM16.0938 72.4375C16.0938 76.375 16.0938 80.0312 16.0938 83.4062C16.2812 86.7812 16.5625 90.0625 16.9375 93.25C17.5 96.4375 18.1562 99.7188 18.9062 103.094C19.6562 106.469 20.6875 110.312 22 114.625C27.8125 113.688 34.75 111.906 42.8125 109.281C50.875 106.656 58.5625 103.094 65.875 98.5938C73.375 94.0938 79.6562 88.9375 84.7188 83.125C89.7812 77.125 92.3125 70.4688 92.3125 63.1562C92.3125 59.2188 91.375 55.75 89.5 52.75C87.625 49.5625 85.1875 46.9375 82.1875 44.875C79.375 42.8125 76.1875 41.2188 72.625 40.0938C69.0625 38.9688 65.5938 38.4062 62.2188 38.4062C56.7812 38.4062 51.25 39.0625 45.625 40.375C40.1875 41.6875 35.2188 43.75 30.7188 46.5625C26.4062 49.375 22.8438 52.9375 20.0312 57.25C17.4062 61.5625 16.0938 66.625 16.0938 72.4375ZM96.475 165.531C96.475 161.219 96.85 156.25 97.6 150.625C98.35 144.812 99.5687 139 101.256 133.188C102.944 127.375 105.006 121.656 107.444 116.031C110.069 110.406 113.162 105.438 116.725 101.125C120.287 96.625 124.412 93.0625 129.1 90.4375C133.787 87.625 139.037 86.2188 144.85 86.2188C150.85 86.2188 156.381 88.2812 161.444 92.4062C166.694 96.5312 171.1 101.875 174.662 108.438C178.412 115 181.225 122.312 183.1 130.375C184.975 138.438 185.725 146.312 185.35 154C185.35 165.25 183.194 175.281 178.881 184.094C174.569 192.906 169.037 200.031 162.287 205.469C155.725 210.906 148.6 214.562 140.912 216.438C133.412 218.312 126.287 217.844 119.537 215.031C112.975 212.031 107.444 206.5 102.944 198.438C98.6312 190.375 96.475 179.406 96.475 165.531ZM106.881 166.656C107.444 178.094 109.412 186.906 112.787 193.094C116.162 199.281 120.194 203.406 124.881 205.469C129.756 207.344 135.006 207.344 140.631 205.469C146.256 203.594 151.506 200.312 156.381 195.625C161.256 190.75 165.381 184.75 168.756 177.625C172.319 170.312 174.287 162.156 174.662 153.156C175.037 146.406 174.475 139.844 172.975 133.469C171.662 127.094 169.694 121.469 167.069 116.594C164.631 111.531 161.537 107.594 157.787 104.781C154.225 101.781 150.1 100.281 145.412 100.281C140.912 100.281 136.881 101.406 133.319 103.656C129.756 105.906 126.475 109 123.475 112.938C120.662 116.688 118.225 121 116.162 125.875C114.1 130.75 112.319 135.625 110.819 140.5C109.506 145.375 108.475 150.156 107.725 154.844C107.162 159.344 106.881 163.281 106.881 166.656ZM185.012 107.875C185.012 106.938 185.575 106 186.7 105.062C188.012 104.125 189.512 103.375 191.2 102.812C193.075 102.25 194.856 101.875 196.544 101.688C198.231 101.5 199.45 101.781 200.2 102.531C201.325 125.781 203.481 144.344 206.669 158.219C210.044 171.906 213.794 181.938 217.919 188.312C222.231 194.688 226.825 197.969 231.7 198.156C236.575 198.156 241.356 196.094 246.044 191.969C250.731 187.656 255.044 181.844 258.981 174.531C263.106 167.219 266.387 159.344 268.825 150.906C271.45 142.469 273.044 134.031 273.606 125.594C274.169 117.156 273.419 109.656 271.356 103.094L288.231 101.125C288.419 103.938 288.887 108.625 289.637 115.188C290.575 121.562 291.512 128.875 292.45 137.125C293.575 145.188 294.794 153.625 296.106 162.438C297.419 171.25 298.544 179.5 299.481 187.188C300.419 194.688 301.262 201.156 302.012 206.594C302.762 211.844 303.137 215.125 303.137 216.438H291.044L277.825 167.781C275.2 174.344 272.012 180.625 268.262 186.625C264.512 192.625 260.387 197.875 255.887 202.375C251.575 206.875 246.981 210.438 242.106 213.062C237.231 215.5 232.356 216.531 227.481 216.156C222.794 215.594 218.2 213.344 213.7 209.406C209.2 205.469 204.981 199.281 201.044 190.844C197.294 182.219 194.012 171.156 191.2 157.656C188.387 144.156 186.325 127.562 185.012 107.875ZM314.331 194.219C317.706 194.219 320.8 194.875 323.612 196.188C326.612 197.5 329.519 199 332.331 200.688C335.144 202.188 337.956 203.594 340.769 204.906C343.769 206.031 346.956 206.594 350.331 206.594C354.269 206.594 358.3 205.938 362.425 204.625C366.737 203.125 370.675 201.156 374.237 198.719C377.8 196.094 380.706 193 382.956 189.438C385.206 185.688 386.331 181.656 386.331 177.344C386.519 176.031 386.519 174.438 386.331 172.562C386.331 170.688 385.769 168.812 384.644 166.938C383.519 164.875 381.644 163 379.019 161.312C376.394 159.438 372.55 158.031 367.487 157.094C362.612 156.156 356.425 155.688 348.925 155.688C341.425 155.5 332.144 156.156 321.081 157.656C318.269 157.656 315.55 156.906 312.925 155.406C310.3 153.719 307.956 151.75 305.894 149.5C303.831 147.062 302.144 144.531 300.831 141.906C299.519 139.094 298.862 136.469 298.862 134.031C298.862 126.719 300.362 120.812 303.362 116.312C306.55 111.625 310.581 107.969 315.456 105.344C320.331 102.531 325.769 100.562 331.769 99.4375C337.769 98.3125 343.862 97.75 350.05 97.75C352.862 97.75 356.05 97.9375 359.612 98.3125C363.362 98.5 366.737 99.25 369.737 100.562C372.925 101.688 375.55 103.562 377.612 106.188C379.862 108.812 380.987 112.469 380.987 117.156C380.612 120.344 380.05 122.312 379.3 123.062C378.737 123.625 377.8 123.438 376.487 122.5C375.362 121.375 373.956 119.875 372.269 118C370.581 116.125 368.519 114.344 366.081 112.656C363.831 110.781 361.019 109.375 357.644 108.438C354.456 107.5 350.8 107.5 346.675 108.438C342.362 108.438 338.05 108.906 333.737 109.844C329.425 110.594 325.487 112 321.925 114.062C318.55 116.125 315.737 118.938 313.487 122.5C311.425 126.062 310.394 130.562 310.394 136C310.394 138.812 311.612 140.781 314.05 141.906C316.675 142.844 320.05 143.312 324.175 143.312C328.487 143.312 333.269 143.219 338.519 143.031C343.956 142.656 349.487 142.469 355.112 142.469C360.737 142.469 366.175 142.938 371.425 143.875C376.675 144.625 381.269 146.312 385.206 148.938C389.331 151.375 392.519 154.938 394.769 159.625C397.019 164.312 397.862 170.406 397.3 177.906C397.3 183.344 395.706 188.5 392.519 193.375C389.519 198.25 385.581 202.562 380.706 206.312C376.019 209.875 370.769 212.688 364.956 214.75C359.144 216.812 353.519 217.562 348.081 217C345.831 216.812 342.737 216.25 338.8 215.312C335.05 214.188 331.3 212.688 327.55 210.812C323.987 208.938 320.894 206.688 318.269 204.062C315.644 201.25 314.331 197.969 314.331 194.219ZM395.837 192.812C395.837 182.125 398.744 174.344 404.556 169.469C410.556 164.594 418.337 162.156 427.9 162.156C431.65 162.156 435.119 162.25 438.306 162.438C441.681 162.625 444.869 163.094 447.869 163.844C450.869 164.594 453.775 165.719 456.587 167.219C459.587 168.719 462.681 170.875 465.869 173.688C465.869 173.125 465.869 172 465.869 170.312C466.056 168.438 466.15 166.469 466.15 164.406C466.15 162.344 466.15 160.469 466.15 158.781C466.15 156.906 466.15 155.594 466.15 154.844C465.962 151.469 465.869 147.156 465.869 141.906C465.869 136.469 465.4 130.938 464.462 125.312C463.712 119.688 462.025 114.344 459.4 109.281C456.962 104.219 452.931 100.375 447.306 97.75C443.369 97.75 439.712 98.4062 436.337 99.7188C432.962 101.031 429.587 102.438 426.212 103.938C422.837 105.438 419.462 106.844 416.087 108.156C412.712 109.281 409.056 109.844 405.119 109.844C405.119 105.156 406.525 101.312 409.337 98.3125C412.337 95.125 415.9 92.6875 420.025 91C424.15 89.3125 428.462 88.1875 432.962 87.625C437.462 87.0625 441.4 86.7812 444.775 86.7812C448.15 87.3438 451.244 88 454.056 88.75C457.056 89.5 459.775 91 462.212 93.25C464.837 95.5 467.181 98.9688 469.244 103.656C471.494 108.156 473.369 114.531 474.869 122.781C476.556 131.031 477.962 141.531 479.087 154.281C480.4 166.844 481.431 182.312 482.181 200.688C482.556 203.125 481.712 205.281 479.65 207.156C477.775 208.844 475.15 210.344 471.775 211.656C468.4 212.781 464.556 213.812 460.244 214.75C456.119 215.5 451.9 216.062 447.587 216.438C443.275 216.812 439.15 217.094 435.212 217.281C431.275 217.469 427.994 217.562 425.369 217.562C421.994 217.562 418.525 217 414.962 215.875C411.587 214.75 408.4 213.156 405.4 211.094C402.587 208.844 400.244 206.219 398.369 203.219C396.681 200.031 395.837 196.562 395.837 192.812ZM432.4 173.125C423.025 175.75 416.462 178.938 412.712 182.688C408.962 186.25 407.275 189.719 407.65 193.094C408.212 196.469 410.462 199.562 414.4 202.375C418.337 205 423.119 206.781 428.744 207.719C434.369 208.469 440.462 208 447.025 206.312C453.587 204.438 459.869 200.875 465.869 195.625C463.619 190.188 461.369 186.062 459.119 183.25C456.869 180.25 454.431 178 451.806 176.5C449.181 175 446.275 174.062 443.087 173.688C439.9 173.312 436.337 173.125 432.4 173.125ZM474.25 176.219C474.25 171.156 475.094 165.625 476.781 159.625C478.469 153.438 480.906 147.812 484.094 142.75C487.281 137.5 491.125 133.188 495.625 129.812C500.125 126.438 505.375 124.75 511.375 124.75C515.875 124.75 519.812 125.219 523.188 126.156C526.75 126.906 530.031 128.312 533.031 130.375C536.219 132.25 539.125 134.594 541.75 137.406C544.562 140.031 547.469 143.125 550.469 146.688L548.781 2.40625C553.844 0.53125 556.938 -0.21875 558.062 0.15625C559.375 0.53125 560.031 2.125 560.031 4.9375C560.031 5.3125 559.938 5.875 559.75 6.625C559.75 7.375 559.75 7.84375 559.75 8.03125C559.562 11.5937 559.375 16.6562 559.188 23.2188C559.188 29.7813 559.188 37.375 559.188 46C559.375 54.625 559.562 64 559.75 74.125C559.938 84.0625 560.125 94.1875 560.312 104.5C560.5 114.625 560.688 124.75 560.875 134.875C561.25 144.812 561.438 154.094 561.438 162.719C561.625 171.344 561.625 179.031 561.438 185.781C561.438 192.344 561.344 197.312 561.156 200.688C559.094 205 556.188 208.281 552.438 210.531C548.875 212.781 544.938 214.469 540.625 215.594C536.5 216.531 532.188 217.094 527.688 217.281C523.188 217.469 518.969 217.562 515.031 217.562C502.469 217.562 492.531 213.906 485.219 206.594C477.906 199.094 474.25 188.969 474.25 176.219ZM485.5 168.625C485.5 173.312 485.875 178 486.625 182.688C487.375 187.188 488.688 191.219 490.562 194.781C492.438 198.344 495.062 201.25 498.438 203.5C501.812 205.562 506.125 206.594 511.375 206.594C514.562 206.594 518.406 206.594 522.906 206.594C527.406 206.594 531.719 206.125 535.844 205.188C539.969 204.062 543.438 202.375 546.25 200.125C549.062 197.875 550.469 194.688 550.469 190.562C550.469 185.688 549.719 180.156 548.219 173.969C546.906 167.594 544.75 161.594 541.75 155.969C538.938 150.156 535.281 145.281 530.781 141.344C526.469 137.219 521.312 135.156 515.312 135.156C511.375 135.156 507.625 136.188 504.062 138.25C500.5 140.312 497.312 142.938 494.5 146.125C491.875 149.312 489.719 152.875 488.031 156.812C486.344 160.75 485.5 164.688 485.5 168.625ZM558.287 192.812C558.287 182.125 561.194 174.344 567.006 169.469C573.006 164.594 580.787 162.156 590.35 162.156C594.1 162.156 597.569 162.25 600.756 162.438C604.131 162.625 607.319 163.094 610.319 163.844C613.319 164.594 616.225 165.719 619.037 167.219C622.037 168.719 625.131 170.875 628.319 173.688C628.319 173.125 628.319 172 628.319 170.312C628.506 168.438 628.6 166.469 628.6 164.406C628.6 162.344 628.6 160.469 628.6 158.781C628.6 156.906 628.6 155.594 628.6 154.844C628.412 151.469 628.319 147.156 628.319 141.906C628.319 136.469 627.85 130.938 626.912 125.312C626.162 119.688 624.475 114.344 621.85 109.281C619.412 104.219 615.381 100.375 609.756 97.75C605.819 97.75 602.162 98.4062 598.787 99.7188C595.412 101.031 592.037 102.438 588.662 103.938C585.287 105.438 581.912 106.844 578.537 108.156C575.162 109.281 571.506 109.844 567.569 109.844C567.569 105.156 568.975 101.312 571.787 98.3125C574.787 95.125 578.35 92.6875 582.475 91C586.6 89.3125 590.912 88.1875 595.412 87.625C599.912 87.0625 603.85 86.7812 607.225 86.7812C610.6 87.3438 613.694 88 616.506 88.75C619.506 89.5 622.225 91 624.662 93.25C627.287 95.5 629.631 98.9688 631.694 103.656C633.944 108.156 635.819 114.531 637.319 122.781C639.006 131.031 640.412 141.531 641.537 154.281C642.85 166.844 643.881 182.312 644.631 200.688C645.006 203.125 644.162 205.281 642.1 207.156C640.225 208.844 637.6 210.344 634.225 211.656C630.85 212.781 627.006 213.812 622.694 214.75C618.569 215.5 614.35 216.062 610.037 216.438C605.725 216.812 601.6 217.094 597.662 217.281C593.725 217.469 590.444 217.562 587.819 217.562C584.444 217.562 580.975 217 577.412 215.875C574.037 214.75 570.85 213.156 567.85 211.094C565.037 208.844 562.694 206.219 560.819 203.219C559.131 200.031 558.287 196.562 558.287 192.812ZM594.85 173.125C585.475 175.75 578.912 178.938 575.162 182.688C571.412 186.25 569.725 189.719 570.1 193.094C570.662 196.469 572.912 199.562 576.85 202.375C580.787 205 585.569 206.781 591.194 207.719C596.819 208.469 602.912 208 609.475 206.312C616.037 204.438 622.319 200.875 628.319 195.625C626.069 190.188 623.819 186.062 621.569 183.25C619.319 180.25 616.881 178 614.256 176.5C611.631 175 608.725 174.062 605.537 173.688C602.35 173.312 598.787 173.125 594.85 173.125ZM743.237 76.6562C742.487 76.4688 741.55 75.9062 740.425 74.9688C739.487 74.0312 738.55 73 737.612 71.875C736.862 70.75 736.206 69.625 735.644 68.5C735.081 67.375 734.8 66.4375 734.8 65.6875C735.362 59.5 737.612 54.9062 741.55 51.9062C745.675 48.7187 750.362 46.5625 755.612 45.4375C760.862 44.3125 766.3 43.75 771.925 43.75C777.55 43.75 782.331 43.75 786.269 43.75C792.831 43.75 798.831 44.125 804.269 44.875C809.894 45.4375 814.769 46.9375 818.894 49.375C823.019 51.625 826.3 54.9062 828.737 59.2188C831.175 63.5312 832.394 69.4375 832.394 76.9375C832.394 80.6875 832.206 84.0625 831.831 87.0625C831.644 89.875 831.175 92.6875 830.425 95.5C829.675 98.125 828.55 101.031 827.05 104.219C825.55 107.219 823.581 110.688 821.144 114.625C828.831 117.062 835.206 119.406 840.269 121.656C845.331 123.719 849.269 126.344 852.081 129.531C854.894 132.531 856.769 136.281 857.706 140.781C858.831 145.094 859.394 150.719 859.394 157.656C859.394 165.906 857.612 173.688 854.05 181C850.487 188.312 845.706 194.688 839.706 200.125C833.894 205.562 827.05 209.875 819.175 213.062C811.3 216.062 802.956 217.562 794.144 217.562C792.269 217.562 789.737 217.281 786.55 216.719C783.362 215.969 779.894 215.125 776.144 214.188C772.394 213.062 768.55 211.844 764.612 210.531C760.675 209.031 757.112 207.438 753.925 205.75C750.737 204.062 748.112 202.375 746.05 200.688C744.175 199 743.237 197.312 743.237 195.625V76.6562ZM761.8 141.625C762.175 146.125 761.987 150.812 761.237 155.688C760.487 160.562 759.831 165.25 759.269 169.75C758.706 174.25 758.519 178.562 758.706 182.688C758.894 186.625 760.019 190.188 762.081 193.375C764.144 196.562 767.519 199.375 772.206 201.812C776.894 204.062 783.362 205.656 791.612 206.594C798.55 206.594 805.394 205.375 812.144 202.938C819.081 200.312 825.175 196.844 830.425 192.531C835.862 188.031 840.269 182.781 843.644 176.781C847.019 170.594 848.706 163.844 848.706 156.531C848.706 151.656 847.862 147.531 846.175 144.156C844.487 140.781 842.237 138.062 839.425 136C836.612 133.75 833.237 132.156 829.3 131.219C825.55 130.281 821.519 129.812 817.206 129.812C811.769 129.812 806.894 130 802.581 130.375C798.269 130.562 793.956 131.125 789.644 132.062C785.519 132.812 781.206 134.031 776.706 135.719C772.394 137.219 767.425 139.188 761.8 141.625ZM756.175 112.375C756.175 113.875 756.269 115.469 756.456 117.156C756.644 118.656 756.925 120.062 757.3 121.375C757.862 122.5 758.706 123.531 759.831 124.469C760.956 125.219 762.456 125.594 764.331 125.594C770.706 125.594 777.269 124.375 784.019 121.938C790.769 119.5 796.862 116.125 802.3 111.812C807.925 107.5 812.519 102.438 816.081 96.625C819.831 90.625 821.706 83.9688 821.706 76.6562C821.706 75.9062 821.519 74.875 821.144 73.5625C820.769 72.0625 819.925 70.5625 818.612 69.0625C817.3 67.5625 815.331 66.1562 812.706 64.8438C810.081 63.3438 806.519 62.125 802.019 61.1875C797.706 60.25 792.269 59.6875 785.706 59.5C779.144 59.3125 771.175 59.6875 761.8 60.625C761.425 61 760.956 62.2188 760.394 64.2812C760.019 66.3438 759.55 68.9688 758.987 72.1562C758.612 75.1562 758.237 78.5312 757.862 82.2812C757.675 85.8438 757.394 89.5 757.019 93.25C756.831 96.8125 756.644 100.281 756.456 103.656C756.269 107.031 756.175 109.938 756.175 112.375ZM858.213 192.812C858.213 182.125 861.119 174.344 866.931 169.469C872.931 164.594 880.713 162.156 890.275 162.156C894.025 162.156 897.494 162.25 900.681 162.438C904.056 162.625 907.244 163.094 910.244 163.844C913.244 164.594 916.15 165.719 918.963 167.219C921.963 168.719 925.056 170.875 928.244 173.688C928.244 173.125 928.244 172 928.244 170.312C928.431 168.438 928.525 166.469 928.525 164.406C928.525 162.344 928.525 160.469 928.525 158.781C928.525 156.906 928.525 155.594 928.525 154.844C928.338 151.469 928.244 147.156 928.244 141.906C928.244 136.469 927.775 130.938 926.838 125.312C926.088 119.688 924.4 114.344 921.775 109.281C919.338 104.219 915.306 100.375 909.681 97.75C905.744 97.75 902.088 98.4062 898.713 99.7188C895.338 101.031 891.963 102.438 888.588 103.938C885.213 105.438 881.838 106.844 878.463 108.156C875.088 109.281 871.431 109.844 867.494 109.844C867.494 105.156 868.9 101.312 871.713 98.3125C874.713 95.125 878.275 92.6875 882.4 91C886.525 89.3125 890.838 88.1875 895.338 87.625C899.838 87.0625 903.775 86.7812 907.15 86.7812C910.525 87.3438 913.619 88 916.431 88.75C919.431 89.5 922.15 91 924.588 93.25C927.213 95.5 929.556 98.9688 931.619 103.656C933.869 108.156 935.744 114.531 937.244 122.781C938.931 131.031 940.338 141.531 941.463 154.281C942.775 166.844 943.806 182.312 944.556 200.688C944.931 203.125 944.088 205.281 942.025 207.156C940.15 208.844 937.525 210.344 934.15 211.656C930.775 212.781 926.931 213.812 922.619 214.75C918.494 215.5 914.275 216.062 909.963 216.438C905.65 216.812 901.525 217.094 897.588 217.281C893.65 217.469 890.369 217.562 887.744 217.562C884.369 217.562 880.9 217 877.338 215.875C873.963 214.75 870.775 213.156 867.775 211.094C864.963 208.844 862.619 206.219 860.744 203.219C859.056 200.031 858.213 196.562 858.213 192.812ZM894.775 173.125C885.4 175.75 878.838 178.938 875.088 182.688C871.338 186.25 869.65 189.719 870.025 193.094C870.588 196.469 872.838 199.562 876.775 202.375C880.713 205 885.494 206.781 891.119 207.719C896.744 208.469 902.838 208 909.4 206.312C915.963 204.438 922.244 200.875 928.244 195.625C925.994 190.188 923.744 186.062 921.494 183.25C919.244 180.25 916.806 178 914.181 176.5C911.556 175 908.65 174.062 905.463 173.688C902.275 173.312 898.713 173.125 894.775 173.125ZM941.125 168.906C941.125 161.969 942.25 154.281 944.5 145.844C946.75 137.406 950.031 129.625 954.344 122.5C958.656 115.188 964 109.094 970.375 104.219C976.75 99.3438 984.156 96.9062 992.594 96.9062C996.906 96.3438 1000.38 96.8125 1003 98.3125C1005.62 99.625 1007.59 101.781 1008.91 104.781C1010.41 107.781 1011.34 111.25 1011.72 115.188C1012.28 118.938 1012.56 122.875 1012.56 127C1012.75 130.938 1012.75 134.688 1012.56 138.25C1012.56 141.625 1012.75 144.438 1013.12 146.688H1006.09C1005.91 145.562 1005.53 142.938 1004.97 138.812C1004.59 134.5 1003.84 130.094 1002.72 125.594C1001.59 121.094 1000 117.062 997.938 113.5C996.062 109.938 993.344 108.156 989.781 108.156C984.531 108.156 979.562 110.219 974.875 114.344C970.375 118.469 966.438 123.438 963.062 129.25C959.688 135.062 956.969 141.062 954.906 147.25C952.844 153.438 951.812 158.594 951.812 162.719C952 167.406 952.656 172.562 953.781 178.188C954.906 183.625 956.688 188.594 959.125 193.094C961.75 197.594 965.125 201.25 969.25 204.062C973.375 206.875 978.438 207.719 984.438 206.594C988.938 206.594 993.25 205.656 997.375 203.781C1001.5 201.906 1005.53 199.938 1009.47 197.875C1013.41 195.812 1017.34 193.844 1021.28 191.969C1025.41 190.094 1029.72 189.156 1034.22 189.156C1034.22 194.031 1032.44 198.344 1028.88 202.094C1025.31 205.656 1020.91 208.562 1015.66 210.812C1010.59 213.062 1005.16 214.75 999.344 215.875C993.719 217 988.938 217.562 985 217.562C978.625 217.562 972.719 216.25 967.281 213.625C962.031 211 957.438 207.531 953.5 203.219C949.562 198.719 946.469 193.562 944.219 187.75C942.156 181.75 941.125 175.469 941.125 168.906ZM1032.19 107.875C1032.19 106.938 1032.76 106 1033.88 105.062C1035.19 104.125 1036.69 103.375 1038.38 102.812C1040.26 102.25 1042.04 101.875 1043.72 101.688C1045.41 101.5 1046.63 101.781 1047.38 102.531C1048.51 125.781 1050.66 144.344 1053.85 158.219C1057.22 171.906 1060.97 181.938 1065.1 188.312C1069.41 194.688 1074.01 197.969 1078.88 198.156C1083.76 198.156 1088.54 196.094 1093.22 191.969C1097.91 187.656 1102.22 181.844 1106.16 174.531C1110.29 167.219 1113.57 159.344 1116.01 150.906C1118.63 142.469 1120.22 134.031 1120.79 125.594C1121.35 117.156 1120.6 109.656 1118.54 103.094L1135.41 101.125C1135.6 103.938 1136.07 108.625 1136.82 115.188C1137.76 121.562 1138.69 128.875 1139.63 137.125C1140.76 145.188 1141.97 153.625 1143.29 162.438C1144.6 171.25 1145.72 179.5 1146.66 187.188C1147.6 194.688 1148.44 201.156 1149.19 206.594C1149.94 211.844 1150.32 215.125 1150.32 216.438H1138.22L1125.01 167.781C1122.38 174.344 1119.19 180.625 1115.44 186.625C1111.69 192.625 1107.57 197.875 1103.07 202.375C1098.76 206.875 1094.16 210.438 1089.29 213.062C1084.41 215.5 1079.54 216.531 1074.66 216.156C1069.97 215.594 1065.38 213.344 1060.88 209.406C1056.38 205.469 1052.16 199.281 1048.22 190.844C1044.47 182.219 1041.19 171.156 1038.38 157.656C1035.57 144.156 1033.51 127.562 1032.19 107.875ZM1156.17 144.156C1155.42 144.719 1154.39 144.906 1153.07 144.719C1151.76 144.531 1150.54 144.25 1149.42 143.875C1148.29 143.312 1147.26 142.656 1146.32 141.906C1145.57 140.969 1145.2 139.938 1145.2 138.812C1145.2 132.438 1147.17 126.625 1151.11 121.375C1155.04 115.938 1159.92 111.344 1165.73 107.594C1171.54 103.656 1177.73 100.656 1184.29 98.5938C1190.86 96.3438 1196.86 95.2188 1202.29 95.2188C1210.92 95.2188 1218.7 96.7188 1225.64 99.7188C1232.76 102.531 1238.76 106.469 1243.64 111.531C1248.7 116.594 1252.54 122.5 1255.17 129.25C1257.98 136 1259.39 143.219 1259.39 150.906C1259.57 160.656 1257.32 169.562 1252.64 177.625C1248.14 185.688 1242.14 192.625 1234.64 198.438C1227.32 204.062 1219.07 208.375 1209.89 211.375C1200.89 214.188 1191.98 215.219 1183.17 214.469C1183.54 221.219 1183.45 228.906 1182.89 237.531C1182.32 246.344 1181.57 255.906 1180.64 266.219C1179.7 276.531 1178.48 287.406 1176.98 298.844C1175.67 310.469 1174.26 322.375 1172.76 334.562C1172.76 334.75 1172.2 334.844 1171.07 334.844C1169.95 334.844 1168.73 334.656 1167.42 334.281C1166.29 334.094 1165.07 333.812 1163.76 333.438C1162.64 333.25 1161.98 333.25 1161.79 333.438C1163.11 317.875 1164.14 302.125 1164.89 286.188C1165.64 270.25 1165.92 254.219 1165.73 238.094C1165.54 222.156 1164.7 206.312 1163.2 190.562C1161.7 174.812 1159.36 159.344 1156.17 144.156ZM1198.92 110.969C1195.36 111.156 1191.51 111.719 1187.39 112.656C1183.26 113.406 1179.61 114.625 1176.42 116.312C1173.23 118 1170.7 120.25 1168.82 123.062C1166.95 125.875 1166.29 129.344 1166.86 133.469C1167.23 135.344 1167.7 138.062 1168.26 141.625C1169.01 145.188 1169.76 149.219 1170.51 153.719C1171.45 158.219 1172.29 162.906 1173.04 167.781C1173.98 172.656 1174.82 177.344 1175.57 181.844C1176.51 186.344 1177.26 190.469 1177.82 194.219C1178.57 197.781 1179.14 200.5 1179.51 202.375C1181.76 202 1184.95 201.625 1189.07 201.25C1193.2 200.875 1197.61 200.125 1202.29 199C1206.98 197.875 1211.76 196.375 1216.64 194.5C1221.7 192.438 1226.39 189.625 1230.7 186.062C1235.01 182.5 1238.76 178.094 1241.95 172.844C1245.32 167.406 1247.57 160.75 1248.7 152.875C1248.7 145.562 1247.39 139.281 1244.76 134.031C1242.14 128.781 1238.57 124.469 1234.07 121.094C1229.57 117.531 1224.23 115 1218.04 113.5C1212.04 111.812 1205.67 110.969 1198.92 110.969ZM1259.89 192.812C1259.89 182.125 1262.8 174.344 1268.61 169.469C1274.61 164.594 1282.39 162.156 1291.96 162.156C1295.71 162.156 1299.18 162.25 1302.36 162.438C1305.74 162.625 1308.93 163.094 1311.93 163.844C1314.93 164.594 1317.83 165.719 1320.64 167.219C1323.64 168.719 1326.74 170.875 1329.93 173.688C1329.93 173.125 1329.93 172 1329.93 170.312C1330.11 168.438 1330.21 166.469 1330.21 164.406C1330.21 162.344 1330.21 160.469 1330.21 158.781C1330.21 156.906 1330.21 155.594 1330.21 154.844C1330.02 151.469 1329.93 147.156 1329.93 141.906C1329.93 136.469 1329.46 130.938 1328.52 125.312C1327.77 119.688 1326.08 114.344 1323.46 109.281C1321.02 104.219 1316.99 100.375 1311.36 97.75C1307.43 97.75 1303.77 98.4062 1300.39 99.7188C1297.02 101.031 1293.64 102.438 1290.27 103.938C1286.89 105.438 1283.52 106.844 1280.14 108.156C1276.77 109.281 1273.11 109.844 1269.18 109.844C1269.18 105.156 1270.58 101.312 1273.39 98.3125C1276.39 95.125 1279.96 92.6875 1284.08 91C1288.21 89.3125 1292.52 88.1875 1297.02 87.625C1301.52 87.0625 1305.46 86.7812 1308.83 86.7812C1312.21 87.3438 1315.3 88 1318.11 88.75C1321.11 89.5 1323.83 91 1326.27 93.25C1328.89 95.5 1331.24 98.9688 1333.3 103.656C1335.55 108.156 1337.43 114.531 1338.93 122.781C1340.61 131.031 1342.02 141.531 1343.14 154.281C1344.46 166.844 1345.49 182.312 1346.24 200.688C1346.61 203.125 1345.77 205.281 1343.71 207.156C1341.83 208.844 1339.21 210.344 1335.83 211.656C1332.46 212.781 1328.61 213.812 1324.3 214.75C1320.18 215.5 1315.96 216.062 1311.64 216.438C1307.33 216.812 1303.21 217.094 1299.27 217.281C1295.33 217.469 1292.05 217.562 1289.43 217.562C1286.05 217.562 1282.58 217 1279.02 215.875C1275.64 214.75 1272.46 213.156 1269.46 211.094C1266.64 208.844 1264.3 206.219 1262.43 203.219C1260.74 200.031 1259.89 196.562 1259.89 192.812ZM1296.46 173.125C1287.08 175.75 1280.52 178.938 1276.77 182.688C1273.02 186.25 1271.33 189.719 1271.71 193.094C1272.27 196.469 1274.52 199.562 1278.46 202.375C1282.39 205 1287.18 206.781 1292.8 207.719C1298.43 208.469 1304.52 208 1311.08 206.312C1317.64 204.438 1323.93 200.875 1329.93 195.625C1327.68 190.188 1325.43 186.062 1323.18 183.25C1320.93 180.25 1318.49 178 1315.86 176.5C1313.24 175 1310.33 174.062 1307.14 173.688C1303.96 173.312 1300.39 173.125 1296.46 173.125ZM1341.12 107.312C1343.37 106.375 1345.34 106.188 1347.03 106.75C1348.71 107.312 1350.12 108.344 1351.24 109.844C1352.37 111.344 1353.21 113.125 1353.78 115.188C1354.34 117.062 1354.81 118.938 1355.18 120.812C1357.62 116.688 1361.09 113.406 1365.59 110.969C1370.28 108.344 1375.24 106.656 1380.49 105.906C1385.74 104.969 1390.99 104.781 1396.24 105.344C1401.49 105.719 1405.9 106.844 1409.46 108.719C1413.21 110.406 1415.84 112.844 1417.34 116.031C1418.84 119.031 1418.46 122.594 1416.21 126.719C1411.34 123.906 1406.18 121.656 1400.74 119.969C1395.49 118.281 1390.34 117.719 1385.28 118.281C1380.21 118.844 1375.53 120.812 1371.21 124.188C1366.9 127.375 1363.34 132.531 1360.53 139.656C1357.71 146.781 1355.93 156.25 1355.18 168.062C1354.62 179.688 1355.46 194.219 1357.71 211.656H1347.03C1347.03 211.656 1346.84 210.156 1346.46 207.156C1346.28 203.969 1345.99 199.844 1345.62 194.781C1345.43 189.719 1345.06 184.094 1344.49 177.906C1344.12 171.719 1343.74 165.438 1343.37 159.062C1342.99 152.688 1342.62 146.594 1342.24 140.781C1342.06 134.781 1341.78 129.625 1341.4 125.312C1341.4 124.75 1341.31 123.625 1341.12 121.938C1341.12 120.25 1341.12 118.469 1341.12 116.594C1341.12 114.531 1341.12 112.656 1341.12 110.969C1341.12 109.281 1341.12 108.062 1341.12 107.312ZM1427.97 107.875C1430.22 107.875 1432.09 107.781 1433.59 107.594C1435.28 107.406 1436.69 108.344 1437.81 110.406C1438.38 118.844 1439.03 127.469 1439.78 136.281C1440.53 144.906 1441.28 153.625 1442.03 162.438C1442.78 171.25 1443.25 180.156 1443.44 189.156C1443.81 197.969 1443.91 206.594 1443.72 215.031C1443.72 216.156 1443.44 216.812 1442.88 217C1442.31 217.375 1441.47 217.469 1440.34 217.281C1439.41 217.281 1438.19 217.188 1436.69 217C1435.38 217 1433.88 217.188 1432.19 217.562L1427.97 107.875ZM1411.66 57.5312C1411.66 56.2188 1411.75 54.8125 1411.94 53.3125C1412.12 51.625 1412.5 50.125 1413.06 48.8125C1413.81 47.5 1414.66 46.375 1415.59 45.4375C1416.72 44.5 1418.03 44.0312 1419.53 44.0312C1421.78 44.0312 1424.03 44.125 1426.28 44.3125C1428.53 44.5 1430.69 44.9688 1432.75 45.7188C1434.81 46.2812 1436.5 47.3125 1437.81 48.8125C1439.12 50.125 1439.78 52.0938 1439.78 54.7188C1439.78 59.2188 1438.09 63.25 1434.72 66.8125C1431.34 70.1875 1427.22 71.875 1422.34 71.875C1418.59 71.875 1415.88 70.4688 1414.19 67.6562C1412.5 64.6562 1411.66 61.2812 1411.66 57.5312ZM1427.97 58.9375C1427.41 58.9375 1427.12 59.4062 1427.12 60.3438C1427.12 61.2812 1427.41 61.75 1427.97 61.75C1428.72 61.75 1429.09 61.2812 1429.09 60.3438C1429.09 59.4062 1428.72 58.9375 1427.97 58.9375Z" fill="white"/>
</svg>
