<svg width="479" height="232" viewBox="0 0 479 232" fill="none" xmlns="http://www.w3.org/2000/svg">
<path d="M10.1172 130.59C7.38281 129.04 5.46875 127.536 4.375 126.078C3.28125 124.62 2.73438 123.07 2.73438 121.43C2.73438 119.789 3.14453 117.966 3.96484 115.961C4.78516 113.956 5.74219 111.632 6.83594 108.988C7.10938 108.441 7.65625 107.348 8.47656 105.707C9.29688 103.975 10.2083 101.97 11.2109 99.6914C12.3047 97.4128 13.444 95.043 14.6289 92.582C15.9049 90.0299 17.0443 87.6146 18.0469 85.3359C19.1406 83.0573 20.0521 81.0977 20.7812 79.457C21.6016 77.7253 22.1484 76.5859 22.4219 76.0391C23.6068 73.487 24.1081 71.2539 23.9258 69.3398C23.8346 67.3346 23.6068 65.4661 23.2422 63.7344C22.9688 62.0026 22.832 60.3164 22.832 58.6758C22.9232 57.0352 23.7891 55.1667 25.4297 53.0703C25.7031 52.7969 26.2956 52.1589 27.207 51.1562C28.1185 50.1536 29.0755 49.1055 30.0781 48.0117C31.1719 46.8268 32.1745 45.7786 33.0859 44.8672C33.9974 43.8646 34.5443 43.2266 34.7266 42.9531C35.1823 42.4062 36.4583 41.4948 38.5547 40.2188C40.7422 38.9427 43.3854 37.5755 46.4844 36.1172C49.5833 34.5677 53.0013 33.0182 56.7383 31.4688C60.5664 29.8281 64.349 28.4154 68.0859 27.2305C71.8229 25.9544 75.4232 24.9974 78.8867 24.3594C82.3503 23.7214 85.3125 23.5391 87.7734 23.8125C90.2344 24.0859 92.0117 24.9518 93.1055 26.4102C94.2904 27.8685 94.4727 30.1016 93.6523 33.1094C92.2852 38.0312 90.0521 42.3607 86.9531 46.0977C83.9453 49.8346 80.7552 53.1615 77.3828 56.0781C74.0104 58.9948 70.7747 61.5924 67.6758 63.8711C64.668 66.1497 62.4349 68.2917 60.9766 70.2969C71.9141 70.6615 79.8893 71.9831 84.9023 74.2617C90.0065 76.5404 92.8776 79.4115 93.5156 82.875C94.2448 86.3385 93.151 90.2122 90.2344 94.4961C87.3177 98.6888 83.3073 102.882 78.2031 107.074C73.099 111.176 67.3112 115.095 60.8398 118.832C54.3685 122.478 47.8971 125.486 41.4258 127.855C35.0456 130.225 29.0299 131.729 23.3789 132.367C17.819 133.005 13.3984 132.413 10.1172 130.59ZM20.918 97.5039C19.1862 99.6003 17.5911 101.924 16.1328 104.477C14.6745 106.938 13.5352 109.398 12.7148 111.859C11.9857 114.229 11.6667 116.508 11.7578 118.695C11.849 120.792 12.5326 122.523 13.8086 123.891C15.0846 125.167 16.9987 125.941 19.5508 126.215C22.194 126.488 25.7031 125.987 30.0781 124.711C39.7396 122.523 48.125 119.743 55.2344 116.371C62.4349 112.999 68.3594 109.49 73.0078 105.844C77.7474 102.107 81.2109 98.4154 83.3984 94.7695C85.6771 91.1237 86.7253 87.9336 86.543 85.1992C86.4518 82.3737 85.1302 80.2318 82.5781 78.7734C80.1172 77.3151 76.5169 76.9049 71.7773 77.543C67.0378 78.0898 61.1589 79.9583 54.1406 83.1484C47.2135 86.2474 39.1927 91.0326 30.0781 97.5039C29.0755 98.3242 28.1641 98.7344 27.3438 98.7344C26.5234 98.6432 25.7487 98.4609 25.0195 98.1875C24.2904 97.8229 23.6068 97.5039 22.9688 97.2305C22.3307 96.957 21.6471 97.0482 20.918 97.5039ZM23.9258 86.0195C23.9258 86.293 23.8802 86.7031 23.7891 87.25C23.7891 87.7969 23.7891 88.3893 23.7891 89.0273C23.7891 89.5742 23.7891 90.1211 23.7891 90.668C23.8802 91.2148 23.9258 91.625 23.9258 91.8984C24.6549 91.7161 26.1589 90.8503 28.4375 89.3008C30.7161 87.7513 33.4505 85.7461 36.6406 83.2852C39.9219 80.8242 43.4766 78.0443 47.3047 74.9453C51.1328 71.7552 54.9609 68.474 58.7891 65.1016C62.7083 61.638 66.3997 58.2201 69.8633 54.8477C73.418 51.3841 76.4714 48.1484 79.0234 45.1406C81.5755 42.1328 83.4896 39.4896 84.7656 37.2109C86.1328 34.8411 86.543 33.0182 85.9961 31.7422C81.9857 31.1953 77.7474 31.4688 73.2812 32.5625C68.9062 33.5651 64.5768 35.069 60.293 37.0742C56.1003 39.0794 52.181 41.4036 48.5352 44.0469C44.8893 46.599 41.8359 49.1055 39.375 51.5664C38.8281 52.7513 37.9167 54.8477 36.6406 57.8555C35.3646 60.8633 33.9518 64.0534 32.4023 67.4258C30.944 70.7982 29.5312 73.9883 28.1641 76.9961C26.888 79.9128 25.9766 81.9635 25.4297 83.1484C25.4297 83.3307 25.2018 83.832 24.7461 84.6523C24.2904 85.3815 24.0169 85.8372 23.9258 86.0195ZM104.639 130.162C103.115 129.654 101.947 128.893 101.135 127.877C100.373 126.811 99.8652 125.643 99.6113 124.373C99.3574 123.104 99.3066 121.783 99.459 120.412C99.6621 118.99 99.9668 117.645 100.373 116.375C101.896 114.75 103.598 112.896 105.477 110.814C107.406 108.682 109.438 106.6 111.57 104.568C113.703 102.537 115.912 100.658 118.197 98.9316C120.533 97.1543 122.895 95.8086 125.281 94.8945C126.094 94.5391 126.729 94.5645 127.186 94.9707C127.693 95.3262 128.049 95.9102 128.252 96.7227C128.455 97.5352 128.531 98.4746 128.48 99.541C128.48 100.607 128.404 101.648 128.252 102.664C128.1 103.68 127.896 104.594 127.643 105.406C127.389 106.219 127.135 106.777 126.881 107.082C126.271 107.793 125.078 108.631 123.301 109.596C121.574 110.561 119.645 111.627 117.512 112.795C115.379 113.912 113.246 115.08 111.113 116.299C108.98 117.518 107.229 118.736 105.857 119.955C104.486 121.123 103.674 122.291 103.42 123.459C103.166 124.627 103.877 125.693 105.553 126.658C107.279 126.861 109.361 126.785 111.799 126.43C114.287 126.023 116.801 125.516 119.34 124.906C121.93 124.246 124.418 123.586 126.805 122.926C129.191 122.215 131.146 121.656 132.67 121.25L133.584 122.088C132.467 123.561 130.639 124.906 128.1 126.125C125.561 127.344 122.818 128.359 119.873 129.172C116.928 129.934 114.059 130.441 111.266 130.695C108.473 130.898 106.264 130.721 104.639 130.162ZM122.844 101.064C122.793 101.014 122.412 101.242 121.701 101.75C120.99 102.207 120.102 102.842 119.035 103.654C118.02 104.416 116.902 105.279 115.684 106.244C114.516 107.158 113.424 108.021 112.408 108.834C111.443 109.646 110.631 110.357 109.971 110.967C109.311 111.525 109.031 111.805 109.133 111.805C109.945 111.957 110.986 111.855 112.256 111.5C113.576 111.094 114.922 110.535 116.293 109.824C117.715 109.113 119.061 108.326 120.33 107.463C121.6 106.549 122.59 105.66 123.301 104.797C124.062 103.934 124.443 103.172 124.443 102.512C124.494 101.852 123.961 101.369 122.844 101.064ZM178.678 129.248C178.119 128.588 177.789 127.852 177.688 127.039C177.637 126.176 177.688 125.338 177.84 124.525C178.043 123.662 178.297 122.85 178.602 122.088C178.957 121.275 179.287 120.539 179.592 119.879C179.795 119.371 180.201 118.457 180.811 117.137C181.471 115.766 182.156 114.344 182.867 112.871C183.629 111.398 184.34 110.027 185 108.758C185.66 107.438 186.117 106.523 186.371 106.016V104.34C185.863 104.086 184.822 104.441 183.248 105.406C181.674 106.32 179.846 107.615 177.764 109.291C175.682 110.916 173.473 112.744 171.137 114.775C168.801 116.807 166.592 118.762 164.51 120.641C162.479 122.469 160.701 124.119 159.178 125.592C157.654 127.014 156.689 127.953 156.283 128.41C155.166 128.766 154.43 128.537 154.074 127.725C153.77 126.861 153.693 125.693 153.846 124.221C153.998 122.697 154.303 121.021 154.76 119.193C155.217 117.314 155.674 115.562 156.131 113.938C156.639 112.262 157.07 110.84 157.426 109.672C157.832 108.504 158.01 107.869 157.959 107.768C156.943 107.412 155.877 107.539 154.76 108.148C153.643 108.758 152.5 109.672 151.332 110.891C150.164 112.059 148.996 113.455 147.828 115.08C146.66 116.654 145.492 118.254 144.324 119.879C143.156 121.453 142.039 122.977 140.973 124.449C139.906 125.871 138.891 127.039 137.926 127.953C136.961 128.867 136.047 129.4 135.184 129.553C134.371 129.705 133.66 129.324 133.051 128.41C133 128.359 132.975 128.232 132.975 128.029C132.975 127.826 133 127.674 133.051 127.572C133.305 127.064 133.686 126.277 134.193 125.211C134.752 124.094 135.361 122.85 136.021 121.479C136.682 120.107 137.393 118.686 138.154 117.213C138.916 115.689 139.627 114.268 140.287 112.947C140.998 111.576 141.607 110.357 142.115 109.291C142.674 108.225 143.105 107.438 143.41 106.93C143.664 106.422 144.02 105.787 144.477 105.025C144.934 104.213 145.391 103.451 145.848 102.74C146.305 101.979 146.711 101.344 147.066 100.836C147.422 100.277 147.6 99.998 147.6 99.998H149.428C149.783 101.166 149.732 102.258 149.275 103.273C148.818 104.289 148.26 105.279 147.6 106.244C146.99 107.209 146.457 108.174 146 109.139C145.594 110.053 145.594 111.043 146 112.109C150.367 108.25 153.719 105.406 156.055 103.578C158.441 101.75 160.117 100.709 161.082 100.455C162.047 100.201 162.504 100.582 162.453 101.598C162.402 102.613 162.174 103.984 161.768 105.711C161.412 107.438 161.031 109.418 160.625 111.652C160.27 113.836 160.244 115.969 160.549 118.051H161.463C161.768 117.848 162.275 117.467 162.986 116.908C163.697 116.35 164.459 115.74 165.271 115.08C166.135 114.42 166.922 113.811 167.633 113.252C168.395 112.693 168.928 112.312 169.232 112.109C169.791 111.652 170.604 111.018 171.67 110.205C172.736 109.393 173.803 108.58 174.869 107.768C175.986 106.904 176.977 106.168 177.84 105.559C178.754 104.898 179.338 104.492 179.592 104.34C179.795 104.188 180.227 103.883 180.887 103.426C181.598 102.918 182.359 102.385 183.172 101.826C184.035 101.268 184.848 100.76 185.609 100.303C186.371 99.7949 186.93 99.4141 187.285 99.1602C188.047 98.6523 188.758 98.4238 189.418 98.4746C190.078 98.5254 190.611 98.7793 191.018 99.2363C191.475 99.6426 191.754 100.227 191.855 100.988C191.957 101.699 191.855 102.512 191.551 103.426C190.332 105.711 189.113 107.945 187.895 110.129C186.727 112.312 185.635 114.521 184.619 116.756C183.654 118.939 182.842 121.199 182.182 123.535C181.572 125.871 181.242 128.359 181.191 131C180.938 131.152 180.658 131.152 180.354 131C180.1 130.848 179.846 130.645 179.592 130.391C179.338 130.137 179.109 129.883 178.906 129.629C178.754 129.375 178.678 129.248 178.678 129.248ZM196.35 109.52C195.689 108.859 195.715 108.225 196.426 107.615C197.188 107.006 198.355 106.447 199.93 105.939C201.555 105.432 203.484 105 205.719 104.645C207.953 104.289 210.264 104.01 212.65 103.807C215.037 103.604 217.348 103.527 219.582 103.578C221.867 103.578 223.848 103.73 225.523 104.035C227.25 104.34 228.52 104.797 229.332 105.406C230.195 106.016 230.398 106.803 229.941 107.768C229.383 107.768 228.443 107.818 227.123 107.92C225.854 107.971 224.482 108.047 223.01 108.148C221.537 108.25 220.141 108.352 218.82 108.453C217.5 108.504 216.586 108.555 216.078 108.605C214.809 108.707 213.26 109.012 211.432 109.52C209.604 109.977 207.725 110.383 205.795 110.738C203.916 111.043 202.113 111.17 200.387 111.119C198.66 111.068 197.314 110.535 196.35 109.52ZM238.092 128.41C237.178 126.988 236.391 124.982 235.73 122.393C235.121 119.803 234.664 116.934 234.359 113.785C234.105 110.637 234.004 107.387 234.055 104.035C234.156 100.633 234.461 97.4336 234.969 94.4375C235.477 91.4414 236.188 88.8262 237.102 86.5918C238.066 84.3574 239.26 82.8086 240.682 81.9453C240.986 82.1484 241.062 83.0879 240.91 84.7637C240.809 86.3887 240.58 88.4707 240.225 91.0098C239.869 93.498 239.463 96.2656 239.006 99.3125C238.6 102.359 238.219 105.381 237.863 108.377C237.559 111.373 237.355 114.191 237.254 116.832C237.203 119.422 237.381 121.58 237.787 123.307C238.244 124.982 238.955 126.049 239.92 126.506C240.936 126.912 242.357 126.404 244.186 124.982C248.35 121.682 252.387 118.051 256.297 114.09C260.258 110.078 263.965 106.244 267.418 102.588C271.633 98.1191 275.645 93.625 279.453 89.1055C283.262 84.5859 286.994 79.8887 290.65 75.0137C291.107 74.3535 291.564 73.998 292.021 73.9473C292.529 73.8965 292.961 74.0488 293.316 74.4043C293.672 74.7598 293.926 75.2422 294.078 75.8516C294.23 76.4102 294.23 76.9941 294.078 77.6035C293.723 78.0098 293.164 78.6445 292.402 79.5078C291.641 80.3203 290.777 81.2852 289.812 82.4023C288.848 83.4688 287.832 84.6113 286.766 85.8301C285.699 86.998 284.684 88.1152 283.719 89.1816C282.754 90.248 281.891 91.2129 281.129 92.0762C280.367 92.9395 279.809 93.5742 279.453 93.9805C278.539 94.9961 277.346 96.418 275.873 98.2461C274.4 100.023 272.75 102.029 270.922 104.264C269.094 106.447 267.139 108.758 265.057 111.195C262.975 113.582 260.842 115.893 258.658 118.127C256.525 120.311 254.418 122.342 252.336 124.221C250.254 126.049 248.299 127.496 246.471 128.562C244.643 129.578 242.992 130.137 241.52 130.238C240.098 130.289 238.955 129.68 238.092 128.41ZM275.568 130.162C277.65 123.459 279.529 118.152 281.205 114.242C282.932 110.281 284.354 107.514 285.471 105.939C286.639 104.365 287.426 103.857 287.832 104.416C288.238 104.975 288.188 106.396 287.68 108.682C287.223 110.967 286.207 114.039 284.633 117.898C283.109 121.707 280.951 126.074 278.158 131C277.752 131.152 277.27 131.178 276.711 131.076C276.152 130.975 275.771 130.67 275.568 130.162ZM288.898 93.5234C288.797 93.2695 288.746 92.8125 288.746 92.1523C288.746 91.4922 288.797 91.0859 288.898 90.9336C290.066 90.5273 290.955 90.4766 291.564 90.7812C292.174 91.0859 292.555 91.543 292.707 92.1523C292.859 92.7109 292.834 93.3203 292.631 93.9805C292.479 94.6406 292.199 95.1484 291.793 95.5039C291.387 95.8086 290.904 95.8594 290.346 95.6562C289.838 95.4023 289.355 94.6914 288.898 93.5234ZM323.785 130.162C323.633 128.486 323.76 126.836 324.166 125.211C324.623 123.535 325.207 121.91 325.918 120.336C326.68 118.711 327.467 117.111 328.279 115.537C329.143 113.912 329.879 112.338 330.488 110.814C331.098 109.24 331.529 107.717 331.783 106.244C332.037 104.721 331.936 103.223 331.479 101.75C330.209 101.293 328.736 101.395 327.061 102.055C325.436 102.715 323.709 103.73 321.881 105.102C320.053 106.422 318.148 107.996 316.168 109.824C314.238 111.602 312.334 113.43 310.455 115.309C308.627 117.137 306.875 118.889 305.199 120.564C303.523 122.24 302 123.637 300.629 124.754C299.309 125.82 298.191 126.506 297.277 126.811C296.363 127.064 295.754 126.734 295.449 125.82C295.398 125.77 295.678 125.135 296.287 123.916C296.947 122.646 297.734 121.072 298.648 119.193C299.613 117.314 300.654 115.283 301.771 113.1C302.939 110.916 304.031 108.885 305.047 107.006C306.062 105.076 306.951 103.451 307.713 102.131C308.475 100.811 308.957 100.1 309.16 99.998C310.227 100.709 310.76 101.496 310.76 102.359C310.811 103.172 310.684 104.035 310.379 104.949C310.074 105.812 309.719 106.701 309.312 107.615C308.957 108.529 308.906 109.443 309.16 110.357C309.973 109.799 311.09 109.037 312.512 108.072C313.984 107.057 315.559 106.016 317.234 104.949C318.961 103.883 320.738 102.842 322.566 101.826C324.445 100.811 326.197 100.023 327.822 99.4648C329.447 98.8555 330.895 98.5254 332.164 98.4746C333.484 98.4238 334.449 98.8047 335.059 99.6172C335.668 100.43 335.846 101.775 335.592 103.654C335.389 105.482 334.602 107.996 333.23 111.195C333.078 111.551 332.697 112.414 332.088 113.785C331.529 115.105 330.895 116.553 330.184 118.127C329.523 119.65 328.889 121.098 328.279 122.469C327.721 123.789 327.365 124.627 327.213 124.982C327.162 125.186 327.086 125.566 326.984 126.125C326.934 126.633 326.857 127.217 326.756 127.877C326.654 128.486 326.502 129.096 326.299 129.705C326.096 130.264 325.842 130.695 325.537 131C325.232 131.305 324.877 131.279 324.471 130.924C324.064 130.518 323.836 130.264 323.785 130.162ZM370.707 129.248C368.777 127.928 367.381 126.303 366.518 124.373C365.654 122.393 365.02 120.285 364.613 118.051H363.775C359.662 121.402 356.082 123.916 353.035 125.592C350.039 127.268 347.5 128.309 345.418 128.715C343.336 129.07 341.711 128.893 340.543 128.182C339.375 127.471 338.613 126.455 338.258 125.135C337.953 123.764 338.029 122.164 338.486 120.336C338.943 118.508 339.73 116.68 340.848 114.852C341.965 112.973 343.412 111.195 345.189 109.52C346.967 107.844 348.998 106.473 351.283 105.406C353.619 104.34 356.184 103.68 358.977 103.426C361.82 103.121 364.867 103.426 368.117 104.34L368.955 103.426L379.238 82.7832C380.609 82.9863 381.422 83.5957 381.676 84.6113C381.93 85.627 381.904 86.7441 381.6 87.9629C381.346 89.1816 380.939 90.375 380.381 91.543C379.873 92.6602 379.492 93.4727 379.238 93.9805C379.086 94.2852 378.781 94.8691 378.324 95.7324C377.918 96.5957 377.41 97.6367 376.801 98.8555C376.242 100.023 375.633 101.268 374.973 102.588C374.312 103.908 373.678 105.178 373.068 106.396C372.51 107.564 372.002 108.605 371.545 109.52C371.088 110.383 370.809 110.941 370.707 111.195C369.793 113.074 369.361 115.08 369.412 117.213C369.514 119.295 369.641 121.301 369.793 123.23C369.996 124.145 370.402 124.906 371.012 125.516C371.621 126.074 372.256 126.607 372.916 127.115C373.627 127.572 374.312 128.029 374.973 128.486C375.684 128.943 376.268 129.502 376.725 130.162C376.521 130.822 376.115 131.152 375.506 131.152C374.896 131.203 374.262 131.102 373.602 130.848C372.941 130.594 372.332 130.289 371.773 129.934C371.215 129.578 370.859 129.35 370.707 129.248ZM342.295 125.82C342.498 126.684 343.26 126.938 344.58 126.582C345.951 126.227 347.551 125.49 349.379 124.373C351.207 123.205 353.137 121.809 355.168 120.184C357.25 118.559 359.104 116.934 360.729 115.309C362.404 113.684 363.699 112.186 364.613 110.814C365.578 109.443 365.883 108.428 365.527 107.768C363.953 106.904 362.201 106.473 360.271 106.473C358.342 106.473 356.412 106.828 354.482 107.539C352.604 108.199 350.775 109.164 348.998 110.434C347.271 111.652 345.799 113.074 344.58 114.699C343.412 116.324 342.574 118.102 342.066 120.031C341.609 121.91 341.686 123.84 342.295 125.82ZM385.408 130.162C383.275 129.299 381.93 128.004 381.371 126.277C380.863 124.551 380.889 122.646 381.447 120.564C382.006 118.432 382.971 116.248 384.342 114.014C385.713 111.729 387.236 109.646 388.912 107.768C390.588 105.889 392.264 104.314 393.939 103.045C395.666 101.725 397.139 100.988 398.357 100.836C401.506 100.43 403.969 100.658 405.746 101.521C407.574 102.334 408.818 103.527 409.479 105.102C410.139 106.676 410.316 108.529 410.012 110.662C409.707 112.744 409.021 114.852 407.955 116.984C406.939 119.117 405.594 121.174 403.918 123.154C402.293 125.135 400.465 126.811 398.434 128.182C396.453 129.502 394.346 130.391 392.111 130.848C389.877 131.254 387.643 131.025 385.408 130.162ZM384.57 125.82C384.977 127.445 385.84 128.359 387.16 128.562C388.48 128.715 390.004 128.385 391.73 127.572C393.508 126.709 395.361 125.49 397.291 123.916C399.221 122.291 400.973 120.539 402.547 118.66C404.172 116.781 405.492 114.902 406.508 113.023C407.574 111.094 408.082 109.418 408.031 107.996C408.031 106.574 407.346 105.508 405.975 104.797C404.654 104.035 402.42 103.883 399.271 104.34C398.561 105 397.646 105.812 396.529 106.777C395.412 107.691 394.244 108.707 393.025 109.824C391.857 110.941 390.689 112.16 389.521 113.48C388.354 114.75 387.338 116.07 386.475 117.441C385.611 118.812 384.977 120.209 384.57 121.631C384.215 123.053 384.215 124.449 384.57 125.82Z" fill="white"/>
<path d="M118.132 201.877C118.132 199.613 118.747 197.965 119.979 196.933C121.249 195.9 122.897 195.384 124.923 195.384C125.717 195.384 126.452 195.404 127.127 195.443C127.842 195.483 128.517 195.582 129.152 195.741C129.788 195.9 130.403 196.138 130.999 196.456C131.634 196.774 132.29 197.23 132.965 197.826C132.965 197.707 132.965 197.469 132.965 197.111C133.005 196.714 133.024 196.297 133.024 195.86C133.024 195.424 133.024 195.026 133.024 194.669C133.024 194.272 133.024 193.994 133.024 193.835C132.985 193.12 132.965 192.207 132.965 191.095C132.965 189.943 132.866 188.771 132.667 187.58C132.508 186.389 132.151 185.257 131.595 184.185C131.078 183.112 130.225 182.298 129.033 181.742C128.199 181.742 127.425 181.881 126.71 182.159C125.995 182.437 125.28 182.735 124.565 183.053C123.851 183.37 123.136 183.668 122.421 183.946C121.706 184.185 120.932 184.304 120.098 184.304C120.098 183.311 120.396 182.497 120.991 181.861C121.627 181.186 122.381 180.67 123.255 180.312C124.129 179.955 125.042 179.717 125.995 179.598C126.948 179.479 127.782 179.419 128.497 179.419C129.212 179.538 129.867 179.677 130.463 179.836C131.098 179.995 131.674 180.312 132.19 180.789C132.746 181.266 133.243 182 133.68 182.993C134.156 183.946 134.553 185.297 134.871 187.044C135.229 188.791 135.526 191.015 135.765 193.716C136.043 196.377 136.261 199.653 136.42 203.545C136.499 204.061 136.321 204.518 135.884 204.915C135.487 205.272 134.931 205.59 134.216 205.868C133.501 206.106 132.687 206.325 131.773 206.523C130.9 206.682 130.006 206.801 129.093 206.881C128.179 206.96 127.306 207.02 126.472 207.06C125.638 207.099 124.943 207.119 124.387 207.119C123.672 207.119 122.937 207 122.183 206.762C121.468 206.523 120.793 206.186 120.157 205.749C119.562 205.272 119.065 204.716 118.668 204.081C118.311 203.406 118.132 202.671 118.132 201.877ZM125.876 197.707C123.89 198.263 122.5 198.938 121.706 199.732C120.912 200.487 120.554 201.222 120.634 201.937C120.753 202.651 121.229 203.307 122.063 203.902C122.897 204.458 123.91 204.836 125.102 205.034C126.293 205.193 127.584 205.094 128.974 204.736C130.364 204.339 131.694 203.585 132.965 202.473C132.488 201.321 132.012 200.447 131.535 199.852C131.059 199.216 130.542 198.74 129.986 198.422C129.43 198.104 128.815 197.906 128.14 197.826C127.465 197.747 126.71 197.707 125.876 197.707ZM158.08 166.969L160.343 204.736C163.878 204.736 167.412 204.518 170.947 204.081C174.521 203.604 178.175 203.168 181.908 202.771L182.146 204.736C182.106 204.736 181.729 204.796 181.014 204.915C180.339 204.994 179.426 205.114 178.274 205.272C177.162 205.392 175.891 205.531 174.462 205.689C173.032 205.848 171.602 206.007 170.172 206.166C168.743 206.325 167.373 206.484 166.062 206.643C164.752 206.801 163.62 206.921 162.667 207C162.627 207 162.528 207 162.369 207C162.21 207.04 162.031 207.06 161.833 207.06C161.634 207.06 161.435 207.06 161.237 207.06C161.038 207.06 160.879 207.06 160.76 207.06C159.887 207.06 159.172 206.603 158.616 205.689C158.06 204.736 157.603 203.465 157.246 201.877C156.888 200.249 156.63 198.402 156.471 196.337C156.312 194.232 156.193 192.048 156.114 189.784C156.034 187.521 155.995 185.237 155.995 182.934C156.034 180.63 156.054 178.466 156.054 176.44C156.054 174.375 156.034 172.509 155.995 170.841C155.995 169.173 155.935 167.882 155.816 166.969H158.08ZM181.658 201.877C181.658 199.613 182.273 197.965 183.504 196.933C184.775 195.9 186.423 195.384 188.449 195.384C189.243 195.384 189.978 195.404 190.653 195.443C191.368 195.483 192.043 195.582 192.678 195.741C193.314 195.9 193.929 196.138 194.525 196.456C195.16 196.774 195.815 197.23 196.491 197.826C196.491 197.707 196.491 197.469 196.491 197.111C196.53 196.714 196.55 196.297 196.55 195.86C196.55 195.424 196.55 195.026 196.55 194.669C196.55 194.272 196.55 193.994 196.55 193.835C196.51 193.12 196.491 192.207 196.491 191.095C196.491 189.943 196.391 188.771 196.193 187.58C196.034 186.389 195.676 185.257 195.121 184.185C194.604 183.112 193.75 182.298 192.559 181.742C191.725 181.742 190.951 181.881 190.236 182.159C189.521 182.437 188.806 182.735 188.091 183.053C187.376 183.37 186.662 183.668 185.947 183.946C185.232 184.185 184.457 184.304 183.623 184.304C183.623 183.311 183.921 182.497 184.517 181.861C185.152 181.186 185.907 180.67 186.781 180.312C187.654 179.955 188.568 179.717 189.521 179.598C190.474 179.479 191.308 179.419 192.023 179.419C192.738 179.538 193.393 179.677 193.989 179.836C194.624 179.995 195.2 180.312 195.716 180.789C196.272 181.266 196.769 182 197.205 182.993C197.682 183.946 198.079 185.297 198.397 187.044C198.754 188.791 199.052 191.015 199.29 193.716C199.568 196.377 199.787 199.653 199.946 203.545C200.025 204.061 199.846 204.518 199.41 204.915C199.012 205.272 198.456 205.59 197.742 205.868C197.027 206.106 196.213 206.325 195.299 206.523C194.426 206.682 193.532 206.801 192.619 206.881C191.705 206.96 190.831 207.02 189.997 207.06C189.163 207.099 188.468 207.119 187.912 207.119C187.198 207.119 186.463 207 185.708 206.762C184.994 206.523 184.318 206.186 183.683 205.749C183.087 205.272 182.591 204.716 182.194 204.081C181.836 203.406 181.658 202.671 181.658 201.877ZM189.402 197.707C187.416 198.263 186.026 198.938 185.232 199.732C184.438 200.487 184.08 201.222 184.16 201.937C184.279 202.651 184.755 203.307 185.589 203.902C186.423 204.458 187.436 204.836 188.627 205.034C189.819 205.193 191.109 205.094 192.499 204.736C193.889 204.339 195.22 203.585 196.491 202.473C196.014 201.321 195.537 200.447 195.061 199.852C194.584 199.216 194.068 198.74 193.512 198.422C192.956 198.104 192.341 197.906 191.665 197.826C190.99 197.747 190.236 197.707 189.402 197.707ZM190.82 221.118C190.82 220.046 190.998 219.232 191.356 218.676C191.713 218.12 192.547 217.842 193.858 217.842C193.738 218.398 193.599 218.954 193.441 219.51C193.242 220.066 193.083 220.582 192.964 221.059C192.805 221.535 192.746 221.912 192.785 222.19C192.785 222.468 192.924 222.568 193.202 222.488C194.473 223.322 195.863 223.918 197.372 224.275C198.881 224.633 200.371 224.812 201.84 224.812C204.064 224.772 205.97 224.315 207.559 223.441C209.187 222.568 210.517 221.436 211.55 220.046C212.622 218.656 213.436 217.048 213.992 215.221C214.588 213.434 214.946 211.567 215.065 209.621C215.224 207.715 215.184 205.789 214.946 203.843C214.707 201.897 214.33 200.11 213.814 198.481C213.139 199.236 212.444 200.03 211.729 200.864C211.054 201.698 210.319 202.453 209.525 203.128C208.73 203.763 207.877 204.299 206.963 204.736C206.089 205.173 205.097 205.392 203.985 205.392C202.833 205.392 201.959 205.193 201.363 204.796C200.807 204.399 200.43 203.863 200.232 203.188C200.033 202.473 199.934 201.659 199.934 200.745C199.974 199.832 199.993 198.859 199.993 197.826C199.993 196.873 200.013 195.801 200.053 194.609C200.132 193.418 200.271 192.227 200.47 191.035C200.708 189.804 201.006 188.613 201.363 187.461C201.761 186.27 202.277 185.217 202.912 184.304C203.548 183.351 204.342 182.596 205.295 182.04C206.248 181.484 207.38 181.206 208.691 181.206C209.525 181.206 210.319 181.285 211.073 181.444C211.868 181.563 212.583 181.802 213.218 182.159C213.893 182.517 214.469 182.993 214.946 183.589C215.422 184.185 215.799 184.939 216.077 185.853C216.236 187.64 216.435 189.586 216.673 191.69C216.911 193.756 217.11 195.92 217.269 198.184C217.428 200.408 217.507 202.651 217.507 204.915C217.507 207.179 217.348 209.363 217.03 211.468C216.752 213.573 216.256 215.538 215.541 217.365C214.866 219.232 213.893 220.86 212.622 222.25C211.391 223.68 209.842 224.812 207.976 225.646C206.109 226.519 203.865 226.996 201.244 227.075C200.132 227.075 198.961 226.996 197.73 226.837C196.499 226.718 195.367 226.44 194.334 226.003C193.302 225.606 192.468 225.01 191.832 224.216C191.157 223.461 190.82 222.429 190.82 221.118ZM202.257 197.826C202.257 198.263 202.237 198.759 202.197 199.315C202.158 199.871 202.178 200.427 202.257 200.983C202.336 201.539 202.495 202.016 202.734 202.413C203.012 202.81 203.448 203.029 204.044 203.068C204.997 203.068 205.871 202.85 206.665 202.413C207.499 201.976 208.234 201.381 208.869 200.626C209.544 199.871 210.12 199.037 210.597 198.124C211.113 197.171 211.53 196.198 211.848 195.205C212.205 194.212 212.463 193.259 212.622 192.346C212.821 191.393 212.92 190.559 212.92 189.844C213.039 189.089 213.039 188.335 212.92 187.58C212.841 186.826 212.622 186.15 212.265 185.555C211.907 184.959 211.431 184.482 210.835 184.125C210.239 183.728 209.525 183.529 208.691 183.529C207.738 183.529 206.904 183.807 206.189 184.363C205.474 184.88 204.878 185.555 204.402 186.389C203.925 187.223 203.548 188.176 203.27 189.248C202.992 190.281 202.773 191.333 202.614 192.405C202.495 193.438 202.396 194.451 202.317 195.443C202.277 196.396 202.257 197.191 202.257 197.826ZM217.614 196.099C217.614 195.185 217.694 194.133 217.853 192.941C218.011 191.71 218.27 190.479 218.627 189.248C218.984 188.017 219.421 186.806 219.938 185.614C220.493 184.423 221.149 183.37 221.903 182.457C222.658 181.504 223.532 180.749 224.524 180.193C225.517 179.598 226.629 179.3 227.86 179.3C229.131 179.3 230.303 179.737 231.375 180.61C232.487 181.484 233.42 182.616 234.175 184.006C234.969 185.396 235.565 186.945 235.962 188.652C236.359 190.36 236.518 192.028 236.438 193.656C236.438 196.039 235.982 198.164 235.068 200.03C234.155 201.897 232.983 203.406 231.554 204.558C230.164 205.709 228.655 206.484 227.026 206.881C225.438 207.278 223.929 207.179 222.499 206.583C221.109 205.948 219.938 204.776 218.984 203.068C218.071 201.361 217.614 199.037 217.614 196.099ZM219.818 196.337C219.938 198.759 220.354 200.626 221.069 201.937C221.784 203.247 222.638 204.121 223.631 204.558C224.663 204.955 225.775 204.955 226.967 204.558C228.158 204.16 229.27 203.465 230.303 202.473C231.335 201.44 232.209 200.169 232.924 198.66C233.678 197.111 234.095 195.384 234.175 193.478C234.254 192.048 234.135 190.658 233.817 189.308C233.539 187.957 233.122 186.766 232.566 185.733C232.05 184.661 231.395 183.827 230.601 183.231C229.846 182.596 228.972 182.278 227.979 182.278C227.026 182.278 226.173 182.517 225.418 182.993C224.663 183.47 223.968 184.125 223.333 184.959C222.737 185.753 222.221 186.667 221.784 187.699C221.347 188.732 220.97 189.764 220.652 190.797C220.374 191.829 220.156 192.842 219.997 193.835C219.878 194.788 219.818 195.622 219.818 196.337ZM236.367 201.877C236.367 199.613 236.983 197.965 238.214 196.933C239.485 195.9 241.133 195.384 243.158 195.384C243.952 195.384 244.687 195.404 245.362 195.443C246.077 195.483 246.752 195.582 247.387 195.741C248.023 195.9 248.638 196.138 249.234 196.456C249.87 196.774 250.525 197.23 251.2 197.826C251.2 197.707 251.2 197.469 251.2 197.111C251.24 196.714 251.26 196.297 251.26 195.86C251.26 195.424 251.26 195.026 251.26 194.669C251.26 194.272 251.26 193.994 251.26 193.835C251.22 193.12 251.2 192.207 251.2 191.095C251.2 189.943 251.101 188.771 250.902 187.58C250.743 186.389 250.386 185.257 249.83 184.185C249.314 183.112 248.46 182.298 247.268 181.742C246.434 181.742 245.66 181.881 244.945 182.159C244.23 182.437 243.515 182.735 242.801 183.053C242.086 183.37 241.371 183.668 240.656 183.946C239.941 184.185 239.167 184.304 238.333 184.304C238.333 183.311 238.631 182.497 239.226 181.861C239.862 181.186 240.616 180.67 241.49 180.312C242.364 179.955 243.277 179.717 244.23 179.598C245.183 179.479 246.017 179.419 246.732 179.419C247.447 179.538 248.102 179.677 248.698 179.836C249.333 179.995 249.909 180.312 250.426 180.789C250.982 181.266 251.478 182 251.915 182.993C252.391 183.946 252.789 185.297 253.106 187.044C253.464 188.791 253.762 191.015 254 193.716C254.278 196.377 254.496 199.653 254.655 203.545C254.735 204.061 254.556 204.518 254.119 204.915C253.722 205.272 253.166 205.59 252.451 205.868C251.736 206.106 250.922 206.325 250.009 206.523C249.135 206.682 248.241 206.801 247.328 206.881C246.415 206.96 245.541 207.02 244.707 207.06C243.873 207.099 243.178 207.119 242.622 207.119C241.907 207.119 241.172 207 240.418 206.762C239.703 206.523 239.028 206.186 238.392 205.749C237.797 205.272 237.3 204.716 236.903 204.081C236.546 203.406 236.367 202.671 236.367 201.877ZM244.111 197.707C242.125 198.263 240.735 198.938 239.941 199.732C239.147 200.487 238.79 201.222 238.869 201.937C238.988 202.651 239.465 203.307 240.299 203.902C241.133 204.458 242.145 204.836 243.337 205.034C244.528 205.193 245.819 205.094 247.209 204.736C248.599 204.339 249.929 203.585 251.2 202.473C250.723 201.321 250.247 200.447 249.77 199.852C249.294 199.216 248.777 198.74 248.221 198.422C247.665 198.104 247.05 197.906 246.375 197.826C245.7 197.747 244.945 197.707 244.111 197.707ZM272.8 198.362C272.8 197.29 272.979 196.118 273.336 194.848C273.694 193.537 274.21 192.346 274.885 191.273C275.56 190.161 276.374 189.248 277.328 188.533C278.281 187.818 279.393 187.461 280.663 187.461C281.617 187.461 282.451 187.56 283.165 187.759C283.92 187.918 284.615 188.215 285.25 188.652C285.926 189.049 286.541 189.546 287.097 190.142C287.693 190.698 288.308 191.353 288.944 192.107L288.586 161.548C289.659 161.151 290.314 160.992 290.552 161.071C290.83 161.151 290.969 161.488 290.969 162.084C290.969 162.163 290.949 162.283 290.91 162.441C290.91 162.6 290.91 162.7 290.91 162.739C290.87 163.494 290.83 164.566 290.79 165.956C290.79 167.346 290.79 168.954 290.79 170.781C290.83 172.608 290.87 174.594 290.91 176.738C290.949 178.843 290.989 180.988 291.029 183.172C291.068 185.316 291.108 187.461 291.148 189.605C291.227 191.71 291.267 193.676 291.267 195.503C291.307 197.33 291.307 198.958 291.267 200.388C291.267 201.778 291.247 202.83 291.207 203.545C290.771 204.458 290.155 205.153 289.361 205.63C288.606 206.106 287.772 206.464 286.859 206.702C285.985 206.901 285.072 207.02 284.119 207.06C283.165 207.099 282.272 207.119 281.438 207.119C278.777 207.119 276.672 206.345 275.123 204.796C273.575 203.207 272.8 201.063 272.8 198.362ZM275.183 196.754C275.183 197.747 275.262 198.74 275.421 199.732C275.58 200.686 275.858 201.539 276.255 202.294C276.652 203.049 277.208 203.664 277.923 204.141C278.638 204.577 279.552 204.796 280.663 204.796C281.339 204.796 282.153 204.796 283.106 204.796C284.059 204.796 284.972 204.697 285.846 204.498C286.72 204.26 287.454 203.902 288.05 203.426C288.646 202.949 288.944 202.274 288.944 201.4C288.944 200.368 288.785 199.196 288.467 197.886C288.189 196.535 287.732 195.265 287.097 194.073C286.501 192.842 285.727 191.81 284.774 190.976C283.86 190.102 282.768 189.665 281.497 189.665C280.663 189.665 279.869 189.883 279.115 190.32C278.36 190.757 277.685 191.313 277.089 191.988C276.533 192.663 276.077 193.418 275.719 194.252C275.362 195.086 275.183 195.92 275.183 196.754ZM291.017 193.001C291.017 191.81 291.275 190.499 291.791 189.069C292.307 187.6 293.002 186.25 293.876 185.019C294.79 183.748 295.802 182.695 296.914 181.861C298.066 180.988 299.257 180.551 300.488 180.551C301.164 180.551 301.819 180.69 302.454 180.968C303.129 181.246 303.765 181.623 304.361 182.1C304.996 182.536 305.552 183.053 306.029 183.648C306.545 184.204 306.942 184.8 307.22 185.436C307.498 186.071 307.637 186.687 307.637 187.282C307.677 187.878 307.518 188.394 307.16 188.831L294.591 191.154C294.432 191.194 294.293 191.393 294.174 191.75C294.055 192.068 293.956 192.485 293.876 193.001C293.797 193.517 293.717 194.093 293.638 194.729C293.598 195.324 293.558 195.92 293.519 196.516C293.479 197.072 293.459 197.588 293.459 198.064C293.459 198.501 293.459 198.839 293.459 199.077C293.459 200.189 293.717 201.103 294.234 201.817C294.79 202.493 295.485 203.009 296.319 203.366C297.153 203.724 298.086 203.962 299.118 204.081C300.191 204.2 301.243 204.26 302.276 204.26C303.308 204.26 304.281 204.22 305.195 204.141C306.108 204.061 306.863 204.021 307.458 204.021C307.458 204.18 307.399 204.359 307.279 204.558C307.16 204.756 307.021 204.955 306.863 205.153C306.704 205.312 306.545 205.471 306.386 205.63C306.227 205.749 306.128 205.828 306.088 205.868C305.77 205.948 305.274 206.067 304.599 206.226C303.963 206.345 303.268 206.464 302.514 206.583C301.799 206.702 301.124 206.801 300.488 206.881C299.853 206.96 299.416 207 299.178 207C297.947 207.238 296.875 207.218 295.961 206.94C295.048 206.662 294.273 206.186 293.638 205.511C293.002 204.836 292.486 204.021 292.089 203.068C291.692 202.076 291.394 201.023 291.196 199.911C290.997 198.799 290.878 197.647 290.838 196.456C290.838 195.265 290.898 194.113 291.017 193.001ZM299.654 182.814C299.297 182.814 298.821 183.013 298.225 183.41C297.669 183.768 297.133 184.244 296.616 184.84C296.14 185.396 295.723 186.011 295.365 186.687C295.048 187.322 294.948 187.878 295.068 188.354C296.1 188.474 297.172 188.454 298.284 188.295C299.396 188.136 300.409 187.898 301.322 187.58C302.236 187.223 302.99 186.826 303.586 186.389C304.182 185.912 304.46 185.436 304.42 184.959C304.42 184.482 304.043 184.065 303.288 183.708C302.573 183.311 301.362 183.013 299.654 182.814ZM329.237 177.274C329.078 177.235 328.88 177.116 328.641 176.917C328.443 176.718 328.244 176.5 328.046 176.262C327.887 176.023 327.748 175.785 327.629 175.547C327.51 175.309 327.45 175.11 327.45 174.951C327.569 173.641 328.046 172.668 328.88 172.032C329.753 171.357 330.746 170.9 331.858 170.662C332.97 170.424 334.122 170.305 335.313 170.305C336.505 170.305 337.517 170.305 338.351 170.305C339.741 170.305 341.012 170.384 342.164 170.543C343.355 170.662 344.388 170.98 345.262 171.496C346.135 171.973 346.83 172.668 347.346 173.581C347.863 174.494 348.121 175.745 348.121 177.334C348.121 178.128 348.081 178.843 348.002 179.479C347.962 180.074 347.863 180.67 347.704 181.266C347.545 181.822 347.307 182.437 346.989 183.112C346.671 183.748 346.254 184.482 345.738 185.316C347.366 185.833 348.717 186.329 349.789 186.806C350.861 187.243 351.695 187.799 352.291 188.474C352.887 189.109 353.284 189.903 353.482 190.856C353.721 191.77 353.84 192.961 353.84 194.431C353.84 196.178 353.462 197.826 352.708 199.375C351.953 200.924 350.941 202.274 349.67 203.426C348.439 204.577 346.989 205.491 345.321 206.166C343.653 206.801 341.886 207.119 340.019 207.119C339.622 207.119 339.086 207.06 338.411 206.94C337.736 206.782 337.001 206.603 336.207 206.404C335.413 206.166 334.598 205.908 333.764 205.63C332.93 205.312 332.176 204.975 331.501 204.617C330.826 204.26 330.27 203.902 329.833 203.545C329.436 203.188 329.237 202.83 329.237 202.473V177.274ZM333.169 191.035C333.248 191.988 333.208 192.981 333.05 194.014C332.891 195.046 332.752 196.039 332.633 196.992C332.513 197.945 332.474 198.859 332.513 199.732C332.553 200.566 332.791 201.321 333.228 201.996C333.665 202.671 334.38 203.267 335.373 203.783C336.366 204.26 337.736 204.597 339.483 204.796C340.953 204.796 342.402 204.538 343.832 204.021C345.301 203.465 346.592 202.731 347.704 201.817C348.856 200.864 349.789 199.752 350.504 198.481C351.219 197.171 351.576 195.741 351.576 194.192C351.576 193.16 351.397 192.286 351.04 191.571C350.682 190.856 350.206 190.281 349.61 189.844C349.014 189.367 348.3 189.03 347.466 188.831C346.671 188.632 345.818 188.533 344.904 188.533C343.752 188.533 342.72 188.573 341.806 188.652C340.893 188.692 339.98 188.811 339.066 189.01C338.193 189.169 337.279 189.427 336.326 189.784C335.413 190.102 334.36 190.519 333.169 191.035ZM331.977 184.84C331.977 185.158 331.997 185.495 332.037 185.853C332.077 186.17 332.136 186.468 332.216 186.746C332.335 186.984 332.513 187.203 332.752 187.401C332.99 187.56 333.308 187.64 333.705 187.64C335.055 187.64 336.445 187.382 337.875 186.865C339.304 186.349 340.595 185.634 341.747 184.721C342.938 183.807 343.911 182.735 344.666 181.504C345.46 180.233 345.857 178.823 345.857 177.274C345.857 177.116 345.818 176.897 345.738 176.619C345.659 176.301 345.48 175.984 345.202 175.666C344.924 175.348 344.507 175.05 343.951 174.772C343.395 174.455 342.64 174.197 341.687 173.998C340.774 173.799 339.622 173.68 338.232 173.641C336.842 173.601 335.154 173.68 333.169 173.879C333.089 173.958 332.99 174.216 332.871 174.653C332.791 175.09 332.692 175.646 332.573 176.321C332.494 176.957 332.414 177.672 332.335 178.466C332.295 179.22 332.235 179.995 332.156 180.789C332.116 181.544 332.077 182.278 332.037 182.993C331.997 183.708 331.977 184.324 331.977 184.84ZM353.589 201.877C353.589 199.613 354.205 197.965 355.436 196.933C356.707 195.9 358.355 195.384 360.38 195.384C361.175 195.384 361.909 195.404 362.585 195.443C363.299 195.483 363.975 195.582 364.61 195.741C365.245 195.9 365.861 196.138 366.457 196.456C367.092 196.774 367.747 197.23 368.422 197.826C368.422 197.707 368.422 197.469 368.422 197.111C368.462 196.714 368.482 196.297 368.482 195.86C368.482 195.424 368.482 195.026 368.482 194.669C368.482 194.272 368.482 193.994 368.482 193.835C368.442 193.12 368.422 192.207 368.422 191.095C368.422 189.943 368.323 188.771 368.125 187.58C367.966 186.389 367.608 185.257 367.052 184.185C366.536 183.112 365.682 182.298 364.491 181.742C363.657 181.742 362.882 181.881 362.168 182.159C361.453 182.437 360.738 182.735 360.023 183.053C359.308 183.37 358.593 183.668 357.879 183.946C357.164 184.185 356.389 184.304 355.555 184.304C355.555 183.311 355.853 182.497 356.449 181.861C357.084 181.186 357.839 180.67 358.712 180.312C359.586 179.955 360.5 179.717 361.453 179.598C362.406 179.479 363.24 179.419 363.955 179.419C364.67 179.538 365.325 179.677 365.921 179.836C366.556 179.995 367.132 180.312 367.648 180.789C368.204 181.266 368.7 182 369.137 182.993C369.614 183.946 370.011 185.297 370.329 187.044C370.686 188.791 370.984 191.015 371.222 193.716C371.5 196.377 371.719 199.653 371.878 203.545C371.957 204.061 371.778 204.518 371.341 204.915C370.944 205.272 370.388 205.59 369.673 205.868C368.959 206.106 368.144 206.325 367.231 206.523C366.357 206.682 365.464 206.801 364.55 206.881C363.637 206.96 362.763 207.02 361.929 207.06C361.095 207.099 360.4 207.119 359.844 207.119C359.129 207.119 358.395 207 357.64 206.762C356.925 206.523 356.25 206.186 355.615 205.749C355.019 205.272 354.523 204.716 354.126 204.081C353.768 203.406 353.589 202.671 353.589 201.877ZM361.334 197.707C359.348 198.263 357.958 198.938 357.164 199.732C356.369 200.487 356.012 201.222 356.091 201.937C356.211 202.651 356.687 203.307 357.521 203.902C358.355 204.458 359.368 204.836 360.559 205.034C361.751 205.193 363.041 205.094 364.431 204.736C365.821 204.339 367.152 203.585 368.422 202.473C367.946 201.321 367.469 200.447 366.993 199.852C366.516 199.216 366 198.74 365.444 198.422C364.888 198.104 364.272 197.906 363.597 197.826C362.922 197.747 362.168 197.707 361.334 197.707ZM371.151 196.813C371.151 195.344 371.389 193.716 371.866 191.929C372.342 190.142 373.037 188.493 373.951 186.984C374.864 185.436 375.996 184.145 377.346 183.112C378.696 182.08 380.265 181.563 382.052 181.563C382.966 181.444 383.7 181.544 384.256 181.861C384.812 182.139 385.229 182.596 385.507 183.231C385.825 183.867 386.024 184.602 386.103 185.436C386.222 186.23 386.282 187.064 386.282 187.938C386.321 188.771 386.321 189.566 386.282 190.32C386.282 191.035 386.321 191.631 386.401 192.107H384.912C384.872 191.869 384.792 191.313 384.673 190.439C384.594 189.526 384.435 188.593 384.197 187.64C383.958 186.687 383.621 185.833 383.184 185.078C382.787 184.324 382.211 183.946 381.456 183.946C380.344 183.946 379.292 184.383 378.299 185.257C377.346 186.131 376.512 187.183 375.797 188.414C375.082 189.645 374.507 190.916 374.07 192.227C373.633 193.537 373.414 194.629 373.414 195.503C373.454 196.496 373.593 197.588 373.831 198.779C374.07 199.931 374.447 200.983 374.963 201.937C375.519 202.89 376.234 203.664 377.108 204.26C377.982 204.855 379.054 205.034 380.325 204.796C381.278 204.796 382.191 204.597 383.065 204.2C383.939 203.803 384.792 203.386 385.626 202.949C386.46 202.512 387.294 202.095 388.128 201.698C389.002 201.301 389.915 201.103 390.869 201.103C390.869 202.135 390.491 203.049 389.737 203.843C388.982 204.597 388.049 205.213 386.937 205.689C385.865 206.166 384.713 206.523 383.482 206.762C382.29 207 381.278 207.119 380.444 207.119C379.093 207.119 377.843 206.841 376.691 206.285C375.579 205.729 374.606 204.994 373.772 204.081C372.938 203.128 372.283 202.036 371.806 200.805C371.369 199.534 371.151 198.203 371.151 196.813ZM390.44 183.887C390.44 183.688 390.559 183.49 390.797 183.291C391.075 183.092 391.393 182.934 391.75 182.814C392.147 182.695 392.525 182.616 392.882 182.576C393.239 182.536 393.498 182.596 393.656 182.755C393.895 187.679 394.351 191.611 395.027 194.55C395.741 197.449 396.536 199.574 397.409 200.924C398.323 202.274 399.296 202.969 400.328 203.009C401.361 203.009 402.374 202.572 403.366 201.698C404.359 200.785 405.273 199.554 406.107 198.005C406.98 196.456 407.675 194.788 408.192 193.001C408.748 191.214 409.085 189.427 409.204 187.64C409.323 185.853 409.165 184.264 408.728 182.874L412.302 182.457C412.342 183.053 412.441 184.046 412.6 185.436C412.798 186.786 412.997 188.335 413.195 190.082C413.434 191.79 413.692 193.577 413.97 195.443C414.248 197.31 414.486 199.057 414.685 200.686C414.883 202.274 415.062 203.644 415.221 204.796C415.38 205.908 415.459 206.603 415.459 206.881H412.898L410.098 196.575C409.542 197.965 408.867 199.296 408.072 200.566C407.278 201.837 406.404 202.949 405.451 203.902C404.538 204.855 403.565 205.61 402.532 206.166C401.5 206.682 400.467 206.901 399.435 206.821C398.442 206.702 397.469 206.226 396.516 205.392C395.563 204.558 394.669 203.247 393.835 201.46C393.041 199.633 392.346 197.29 391.75 194.431C391.154 191.571 390.718 188.057 390.44 183.887ZM416.698 191.571C416.539 191.69 416.321 191.73 416.043 191.69C415.765 191.651 415.507 191.591 415.269 191.512C415.03 191.393 414.812 191.254 414.613 191.095C414.454 190.896 414.375 190.678 414.375 190.439C414.375 189.089 414.792 187.858 415.626 186.746C416.46 185.594 417.493 184.621 418.724 183.827C419.955 182.993 421.265 182.358 422.655 181.921C424.045 181.444 425.316 181.206 426.468 181.206C428.295 181.206 429.943 181.524 431.412 182.159C432.921 182.755 434.192 183.589 435.225 184.661C436.297 185.733 437.111 186.984 437.667 188.414C438.263 189.844 438.561 191.373 438.561 193.001C438.6 195.066 438.124 196.952 437.131 198.66C436.178 200.368 434.907 201.837 433.318 203.068C431.77 204.26 430.022 205.173 428.076 205.809C426.17 206.404 424.284 206.623 422.417 206.464C422.496 207.894 422.477 209.522 422.357 211.349C422.238 213.215 422.079 215.241 421.881 217.425C421.682 219.609 421.424 221.912 421.106 224.335C420.828 226.797 420.531 229.319 420.213 231.9C420.213 231.94 420.094 231.96 419.855 231.96C419.617 231.96 419.359 231.92 419.081 231.841C418.843 231.801 418.585 231.742 418.307 231.662C418.068 231.622 417.929 231.622 417.89 231.662C418.168 228.366 418.386 225.03 418.545 221.654C418.704 218.279 418.763 214.883 418.724 211.468C418.684 208.092 418.505 204.736 418.188 201.4C417.87 198.064 417.373 194.788 416.698 191.571ZM425.753 184.542C424.998 184.582 424.184 184.701 423.311 184.899C422.437 185.058 421.662 185.316 420.987 185.674C420.312 186.031 419.776 186.508 419.379 187.104C418.982 187.699 418.843 188.434 418.962 189.308C419.041 189.705 419.141 190.281 419.26 191.035C419.419 191.79 419.577 192.644 419.736 193.597C419.935 194.55 420.114 195.543 420.272 196.575C420.471 197.608 420.65 198.601 420.809 199.554C421.007 200.507 421.166 201.381 421.285 202.175C421.444 202.929 421.563 203.505 421.643 203.902C422.119 203.823 422.794 203.743 423.668 203.664C424.542 203.585 425.475 203.426 426.468 203.188C427.461 202.949 428.473 202.632 429.506 202.234C430.578 201.798 431.571 201.202 432.484 200.447C433.398 199.693 434.192 198.759 434.867 197.647C435.582 196.496 436.059 195.086 436.297 193.418C436.297 191.869 436.019 190.539 435.463 189.427C434.907 188.315 434.152 187.401 433.199 186.687C432.246 185.932 431.114 185.396 429.804 185.078C428.533 184.721 427.183 184.542 425.753 184.542ZM438.668 201.877C438.668 199.613 439.283 197.965 440.514 196.933C441.785 195.9 443.433 195.384 445.459 195.384C446.253 195.384 446.988 195.404 447.663 195.443C448.378 195.483 449.053 195.582 449.688 195.741C450.324 195.9 450.939 196.138 451.535 196.456C452.17 196.774 452.826 197.23 453.501 197.826C453.501 197.707 453.501 197.469 453.501 197.111C453.541 196.714 453.56 196.297 453.56 195.86C453.56 195.424 453.56 195.026 453.56 194.669C453.56 194.272 453.56 193.994 453.56 193.835C453.521 193.12 453.501 192.207 453.501 191.095C453.501 189.943 453.402 188.771 453.203 187.58C453.044 186.389 452.687 185.257 452.131 184.185C451.614 183.112 450.761 182.298 449.569 181.742C448.735 181.742 447.961 181.881 447.246 182.159C446.531 182.437 445.816 182.735 445.101 183.053C444.387 183.37 443.672 183.668 442.957 183.946C442.242 184.185 441.468 184.304 440.634 184.304C440.634 183.311 440.931 182.497 441.527 181.861C442.163 181.186 442.917 180.67 443.791 180.312C444.665 179.955 445.578 179.717 446.531 179.598C447.484 179.479 448.318 179.419 449.033 179.419C449.748 179.538 450.403 179.677 450.999 179.836C451.634 179.995 452.21 180.312 452.726 180.789C453.282 181.266 453.779 182 454.216 182.993C454.692 183.946 455.089 185.297 455.407 187.044C455.764 188.791 456.062 191.015 456.301 193.716C456.579 196.377 456.797 199.653 456.956 203.545C457.035 204.061 456.857 204.518 456.42 204.915C456.023 205.272 455.467 205.59 454.752 205.868C454.037 206.106 453.223 206.325 452.309 206.523C451.436 206.682 450.542 206.801 449.629 206.881C448.715 206.96 447.842 207.02 447.008 207.06C446.174 207.099 445.479 207.119 444.923 207.119C444.208 207.119 443.473 207 442.719 206.762C442.004 206.523 441.329 206.186 440.693 205.749C440.097 205.272 439.601 204.716 439.204 204.081C438.846 203.406 438.668 202.671 438.668 201.877ZM446.412 197.707C444.426 198.263 443.036 198.938 442.242 199.732C441.448 200.487 441.09 201.222 441.17 201.937C441.289 202.651 441.765 203.307 442.599 203.902C443.433 204.458 444.446 204.836 445.638 205.034C446.829 205.193 448.12 205.094 449.51 204.736C450.9 204.339 452.23 203.585 453.501 202.473C453.024 201.321 452.548 200.447 452.071 199.852C451.595 199.216 451.078 198.74 450.522 198.422C449.966 198.104 449.351 197.906 448.676 197.826C448 197.747 447.246 197.707 446.412 197.707ZM455.872 183.768C456.348 183.569 456.765 183.529 457.123 183.648C457.48 183.768 457.778 183.986 458.016 184.304C458.254 184.621 458.433 184.999 458.552 185.436C458.671 185.833 458.771 186.23 458.85 186.627C459.366 185.753 460.101 185.058 461.054 184.542C462.047 183.986 463.1 183.629 464.212 183.47C465.323 183.271 466.435 183.231 467.547 183.351C468.659 183.43 469.593 183.668 470.347 184.065C471.142 184.423 471.698 184.939 472.015 185.614C472.333 186.25 472.254 187.004 471.777 187.878C470.744 187.282 469.652 186.806 468.501 186.448C467.389 186.091 466.296 185.972 465.224 186.091C464.152 186.21 463.159 186.627 462.246 187.342C461.332 188.017 460.578 189.109 459.982 190.618C459.386 192.127 459.009 194.133 458.85 196.635C458.731 199.097 458.91 202.175 459.386 205.868H457.123C457.123 205.868 457.083 205.55 457.004 204.915C456.964 204.24 456.904 203.366 456.825 202.294C456.785 201.222 456.706 200.03 456.587 198.72C456.507 197.409 456.428 196.079 456.348 194.729C456.269 193.378 456.189 192.088 456.11 190.856C456.07 189.586 456.011 188.493 455.931 187.58C455.931 187.461 455.911 187.223 455.872 186.865C455.872 186.508 455.872 186.131 455.872 185.733C455.872 185.297 455.872 184.899 455.872 184.542C455.872 184.185 455.872 183.926 455.872 183.768ZM474.267 183.887C474.744 183.887 475.141 183.867 475.458 183.827C475.816 183.787 476.114 183.986 476.352 184.423C476.471 186.21 476.61 188.037 476.769 189.903C476.928 191.73 477.087 193.577 477.246 195.443C477.404 197.31 477.504 199.196 477.543 201.103C477.623 202.969 477.643 204.796 477.603 206.583C477.603 206.821 477.543 206.96 477.424 207C477.305 207.079 477.126 207.099 476.888 207.06C476.69 207.06 476.431 207.04 476.114 207C475.836 207 475.518 207.04 475.161 207.119L474.267 183.887ZM470.812 173.224C470.812 172.946 470.832 172.648 470.871 172.33C470.911 171.973 470.991 171.655 471.11 171.377C471.269 171.099 471.447 170.861 471.646 170.662C471.884 170.464 472.162 170.364 472.48 170.364C472.956 170.364 473.433 170.384 473.91 170.424C474.386 170.464 474.843 170.563 475.28 170.722C475.717 170.841 476.074 171.059 476.352 171.377C476.63 171.655 476.769 172.072 476.769 172.628C476.769 173.581 476.412 174.435 475.697 175.189C474.982 175.904 474.108 176.262 473.076 176.262C472.281 176.262 471.705 175.964 471.348 175.368C470.991 174.733 470.812 174.018 470.812 173.224ZM474.267 173.521C474.148 173.521 474.088 173.621 474.088 173.819C474.088 174.018 474.148 174.117 474.267 174.117C474.426 174.117 474.505 174.018 474.505 173.819C474.505 173.621 474.426 173.521 474.267 173.521Z" fill="white"/>
</svg>
